<svg width="36" height="44" viewBox="0 0 36 44" fill="none" xmlns="http://www.w3.org/2000/svg">
<path d="M28 0C32.4183 0 36 3.58172 36 8V36C36 40.4183 32.4183 44 28 44H8C3.58172 44 0 40.4183 0 36V8C0 3.58172 3.58172 0 8 0H28Z" fill="#16A34A"/>
<path d="M28 0C32.4183 0 36 3.58172 36 8V36C36 40.4183 32.4183 44 28 44H8C3.58172 44 0 40.4183 0 36V8C0 3.58172 3.58172 0 8 0H28Z" stroke="#E5E7EB"/>
<path d="M28 36H8V8H28V36Z" stroke="#E5E7EB"/>
<g clip-path="url(#clip0_1_38)">
<path d="M15.1875 13.375H20.8125C20.9844 13.375 21.125 13.5156 21.125 13.6875V15.25H14.875V13.6875C14.875 13.5156 15.0156 13.375 15.1875 13.375ZM13 13.6875V15.25H10.5C9.12109 15.25 8 16.3711 8 17.75V21.5H15.5H20.5H28V17.75C28 16.3711 26.8789 15.25 25.5 15.25H23V13.6875C23 12.4805 22.0195 11.5 20.8125 11.5H15.1875C13.9805 11.5 13 12.4805 13 13.6875ZM28 22.75H20.5V24C20.5 24.6914 19.9414 25.25 19.25 25.25H16.75C16.0586 25.25 15.5 24.6914 15.5 24V22.75H8V27.75C8 29.1289 9.12109 30.25 10.5 30.25H25.5C26.8789 30.25 28 29.1289 28 27.75V22.75Z" fill="white"/>
</g>
<defs>
<clipPath id="clip0_1_38">
<path d="M8 11.5H28V31.5H8V11.5Z" fill="white"/>
</clipPath>
</defs>
</svg>
